<svg id="Capa_1" data-name="Capa 1" xmlns="http://www.w3.org/2000/svg" viewBox="0 0 58.27 61.15"><defs><style>.cls-1{fill:#ededed;}</style></defs><path class="cls-1" d="M5.86,5.82v0Zm5.82,29.12H21.87a16.8,16.8,0,0,1,1.61-3.13,16,16,0,0,1,2.18-2.69h-14Zm0,11.65h9.25a17.32,17.32,0,0,1-.48-2.91,16.76,16.76,0,0,1,0-2.92H11.68ZM5.86,58.23a5.6,5.6,0,0,1-4.11-1.71A5.6,5.6,0,0,1,0,52.41V5.82A5.6,5.6,0,0,1,1.75,1.71,5.6,5.6,0,0,1,5.86,0H29.15L46.62,17.47v7.28a16.49,16.49,0,0,0-2.84-.91,22.3,22.3,0,0,0-3-.47v-3H26.24V5.82H5.86V52.41H23.4A22.23,22.23,0,0,0,26,55.65a16.9,16.9,0,0,0,3.21,2.58ZM39.34,49.5a7.21,7.21,0,0,0,7.28-7.28,7.21,7.21,0,0,0-7.28-7.28,7.3,7.3,0,0,0-5.16,12.45A7,7,0,0,0,39.34,49.5ZM54.19,61.15l-7.86-7.87A11.74,11.74,0,0,1,43,54.81a13.29,13.29,0,0,1-3.68.51,13,13,0,0,1-13.1-13.1,13,13,0,0,1,13.1-13.1,13,13,0,0,1,13.11,13.1,13.35,13.35,0,0,1-.51,3.68,11.87,11.87,0,0,1-1.53,3.31l7.86,7.86Z"/></svg>