<svg id="Capa_1" data-name="Capa 1" xmlns="http://www.w3.org/2000/svg" viewBox="0 0 64.86 62.09"><defs><style>.cls-1{fill:#ededed;}</style></defs><path class="cls-1" d="M29.43,42.06,47,24.52,42.58,20.1,29.43,33.22,22.89,26.7l-4.43,4.42Zm3.27,20A31.05,31.05,0,0,1,14.84,49.71a35.57,35.57,0,0,1-7-21.46V9.31L32.7,0,57.6,9.31V28.25a35.56,35.56,0,0,1-7,21.46A31.05,31.05,0,0,1,32.7,62.09Zm0-6.52A25.36,25.36,0,0,0,46.09,45.32a29.47,29.47,0,0,0,5.29-17.07V13.58L32.7,6.6,14,13.58V28.25a29.4,29.4,0,0,0,5.29,17.07A25.36,25.36,0,0,0,32.7,55.57Z"/></svg>