<svg id="Capa_1" data-name="Capa 1" xmlns="http://www.w3.org/2000/svg" viewBox="0 0 72.54 53.09"><defs><style>.cls-1{fill:#ededed;}</style></defs><path class="cls-1" d="M30.84,43.2,49.47,24.57l-4.79-4.78L30.76,33.72,23.83,26.8l-4.7,4.7Zm-12.7,9.89A17.66,17.66,0,0,1,5.33,47.9,17,17,0,0,1,0,35.2,18.27,18.27,0,0,1,3.88,23.75,17.17,17.17,0,0,1,14,17.32,22.35,22.35,0,0,1,22.27,5a22.56,22.56,0,0,1,14-4.7A22.26,22.26,0,0,1,52.64,7.06a22.26,22.26,0,0,1,6.72,16.36,14.37,14.37,0,0,1,9.43,4.9,14.53,14.53,0,0,1,3.75,9.93A14.77,14.77,0,0,1,57.71,53.09Zm0-6.59H57.71A8.16,8.16,0,0,0,66,38.25,8.16,8.16,0,0,0,57.71,30h-5V23.42a15.89,15.89,0,0,0-4.82-11.66A15.86,15.86,0,0,0,36.28,6.93a15.9,15.9,0,0,0-11.67,4.83,15.89,15.89,0,0,0-4.82,11.66H18.14A11.11,11.11,0,0,0,10,26.8a11.54,11.54,0,0,0,0,16.32A11.15,11.15,0,0,0,18.14,46.5Z"/></svg>