<svg id="Capa_1" data-name="Capa 1" xmlns="http://www.w3.org/2000/svg" viewBox="0 0 64.86 62.09"><defs><style>.cls-1{fill:#ededed;}</style></defs><path class="cls-1" d="M7.37,60.8A6,6,0,0,1,2.94,59,6,6,0,0,1,1.1,54.54V20.08a6.06,6.06,0,0,1,1.84-4.43,6.08,6.08,0,0,1,4.43-1.84H19.9V7.55a6,6,0,0,1,1.84-4.43,6,6,0,0,1,4.43-1.84H38.7a6,6,0,0,1,4.42,1.84A6,6,0,0,1,45,7.55v6.26H57.49a6.28,6.28,0,0,1,6.27,6.27V54.54a6.28,6.28,0,0,1-6.27,6.26Zm18.8-47H38.7V7.55H26.17ZM57.49,42H41.83v6.26H23V42H7.37V54.54H57.49ZM29.3,42h6.26V35.74H29.3ZM7.37,35.74H23V29.48h18.8v6.26H57.49V20.08H7.37Z"/></svg>