<svg id="Capa_1" data-name="Capa 1" xmlns="http://www.w3.org/2000/svg" xmlns:xlink="http://www.w3.org/1999/xlink" viewBox="0 0 59.32 59.32"><defs><style>.cls-1{fill:#fff;}.cls-2{mask:url(#mask);}.cls-3{fill:#ededed;}.cls-4{filter:url(#luminosity-invert-noclip);}</style><filter id="luminosity-invert-noclip" x="0" y="0" width="59.32" height="59.32" filterUnits="userSpaceOnUse" color-interpolation-filters="sRGB"><feColorMatrix values="-1 0 0 0 1 0 -1 0 0 1 0 0 -1 0 1 0 0 0 1 0" result="invert"/><feFlood flood-color="#fff" result="bg"/><feBlend in="invert" in2="bg"/></filter><mask id="mask" x="0" y="0" width="59.32" height="59.32" maskUnits="userSpaceOnUse"><g class="cls-4"><polygon class="cls-1" points="23.01 49.93 26.09 49.93 26.09 47.09 23.34 47.09 23.01 49.93"/><polygon class="cls-1" points="39.05 31.18 42.2 31.18 49.95 25.51 49.95 23.77 38.82 30.66 39.05 31.18"/></g></mask></defs><g class="cls-2"><path class="cls-3" d="M6.24,31.22H25V18.73H6.24Zm0-18.73H50V6.24H6.24Zm0,43.71a6.05,6.05,0,0,1-4.41-1.84A6,6,0,0,1,0,50V6.24A6,6,0,0,1,1.83,1.83,6,6,0,0,1,6.24,0H50a6,6,0,0,1,4.41,1.83A6.05,6.05,0,0,1,56.2,6.24V25.91a11.76,11.76,0,0,0-3.09-.82,11.93,11.93,0,0,0-3.16,0,12.51,12.51,0,0,0-3.16,1.06,10,10,0,0,0-2.77,2l-3,3L25,47.14V56.2Zm0-6.25H25V37.46H6.24Zm25-18.73H41l3-3a10,10,0,0,1,2.77-2A12.51,12.51,0,0,1,50,25.13v-6.4H31.22Zm0,28.1v-9.6L48.47,32.55a4.3,4.3,0,0,1,1.56-1,4.92,4.92,0,0,1,1.72-.31,4.76,4.76,0,0,1,1.79.35,4.82,4.82,0,0,1,1.56,1L58,35.51a5.54,5.54,0,0,1,1,1.56,4.64,4.64,0,0,1,.35,1.72A5.58,5.58,0,0,1,59,40.55a4.28,4.28,0,0,1-1,1.6L40.82,59.32ZM54.63,38.79,51.75,35.9ZM35.9,54.63h3l9.44-9.52-2.89-2.89L35.9,51.67Zm11-11-1.49-1.41,2.89,2.89Z"/></g></svg>