<svg id="Capa_1" data-name="Capa 1" xmlns="http://www.w3.org/2000/svg" viewBox="0 0 64.86 62.09"><defs><style>.cls-1{fill:#ededed;}</style></defs><path class="cls-1" d="M0,52.28V45.75H9L7.68,44.6a20.58,20.58,0,0,1-6-8.57A28.73,28.73,0,0,1,0,26.3,25.77,25.77,0,0,1,5.43,10.17,25.51,25.51,0,0,1,19.61.82V7.68A19.75,19.75,0,0,0,6.54,26.3a18.78,18.78,0,0,0,5.71,13.57l.82.81v-8h6.54v19.6ZM58.57,22.87H52A17.34,17.34,0,0,0,50.2,17.4a21.13,21.13,0,0,0-3.64-5l-.81-.82v8H39.21V0H58.82V6.54h-9l1.31,1.14A26.71,26.71,0,0,1,56.29,15,25.88,25.88,0,0,1,58.57,22.87ZM45.75,62.09l-1-4.91c-.66-.27-1.27-.55-1.84-.85a14.09,14.09,0,0,1-1.76-1.11l-4.74,1.47-3.26-5.55,3.75-3.27a14.19,14.19,0,0,1,0-4.25l-3.75-3.26,3.26-5.56,4.74,1.47a15.22,15.22,0,0,1,1.76-1.1c.57-.3,1.18-.59,1.84-.86l1-4.9h6.53l1,4.9a15,15,0,0,1,1.84.9,13.36,13.36,0,0,1,1.76,1.22L61.6,34.8l3.26,5.72-3.75,3.27a13.08,13.08,0,0,1,0,4.08l3.75,3.27L61.6,56.69l-4.74-1.47a14.09,14.09,0,0,1-1.76,1.11c-.57.3-1.18.58-1.84.85l-1,4.91ZM49,52.28a6.53,6.53,0,0,0,4.62-11.15,6.53,6.53,0,1,0-9.23,9.23A6.29,6.29,0,0,0,49,52.28Z"/></svg>