<svg id="Capa_1" data-name="Capa 1" xmlns="http://www.w3.org/2000/svg" viewBox="0 0 63.2 56.79"><defs><style>.cls-1{fill:#ededed;}</style></defs><path class="cls-1" d="M47.4,56.79a3.11,3.11,0,0,1-3.16-3.16V28.51a3.05,3.05,0,0,1,.91-2.25,3,3,0,0,1,2.25-.91H60a3.11,3.11,0,0,1,3.16,3.16V53.63a3,3,0,0,1-.91,2.25,3.05,3.05,0,0,1-2.25.91Zm0-6.32H60V31.67H47.4ZM19,56.79V50.47h6.32V44.15h-19A6.09,6.09,0,0,1,1.86,42.3,6.1,6.1,0,0,1,0,37.83V6.23A6.09,6.09,0,0,1,1.86,1.77,6.06,6.06,0,0,1,6.32-.09H50.56A6.07,6.07,0,0,1,55,1.77a6.09,6.09,0,0,1,1.86,4.46V19H50.56V6.23H6.32v31.6h31.6v6.32H31.6v6.32h6.32v6.32Z"/></svg>