<svg id="Capa_1" data-name="Capa 1" xmlns="http://www.w3.org/2000/svg" viewBox="0 0 73.06 62.53"><defs><style>.cls-1{fill:#151515;}</style></defs><path class="cls-1" d="M36.53,22.68c6.36,0,12.12,3.31,16.36,6.68a.58.58,0,0,0,.88-.74L36.94.25a.46.46,0,0,0-.82,0L19.29,28.62a.58.58,0,0,0,.88.74c4.24-3.37,10-6.68,16.36-6.68"/><path class="cls-1" d="M36.53,22.68c6.36,0,12.12,3.31,16.36,6.68a.58.58,0,0,0,.88-.74L36.94.25a.46.46,0,0,0-.82,0L19.29,28.62a.58.58,0,0,0,.88.74C24.41,26,30.17,22.68,36.53,22.68Z"/><path class="cls-1" d="M17.32,55.71c6.36,0,12.12,3.31,16.36,6.68a.58.58,0,0,0,.88-.74L17.74,33.28a.47.47,0,0,0-.83,0L.08,61.65a.58.58,0,0,0,.88.74C5.2,59,11,55.71,17.32,55.71"/><path class="cls-1" d="M17.32,55.71c6.36,0,12.12,3.31,16.36,6.68a.58.58,0,0,0,.88-.74L17.74,33.28a.47.47,0,0,0-.83,0L.08,61.65a.58.58,0,0,0,.88.74C5.2,59,11,55.71,17.32,55.71Z"/><path class="cls-1" d="M55.74,55.71c6.36,0,12.12,3.31,16.36,6.68a.58.58,0,0,0,.88-.74L56.15,33.28a.46.46,0,0,0-.82,0L38.5,61.65a.58.58,0,0,0,.88.74c4.24-3.37,10-6.68,16.36-6.68"/><path class="cls-1" d="M55.74,55.71c6.36,0,12.12,3.31,16.36,6.68a.58.58,0,0,0,.88-.74L56.15,33.28a.46.46,0,0,0-.82,0L38.5,61.65a.58.58,0,0,0,.88.74C43.62,59,49.38,55.71,55.74,55.71Z"/></svg>