<?xml version="1.0" encoding="UTF-8"?>
<svg id="Capa_1" xmlns="http://www.w3.org/2000/svg" viewBox="0 0 553.58 89.98">
  <defs>
    <style>
      .cls-1 {
        fill: #151515;
      }
    </style>
  </defs>
  <g>
    <path class="cls-1" d="M52.57,32.64c9.15,0,17.44,4.76,23.54,9.61.73.59,1.73-.25,1.27-1.06L53.17.36c-.25-.48-.94-.48-1.19,0l-24.22,40.83c-.46.82.53,1.65,1.27,1.06,6.1-4.85,14.39-9.61,23.54-9.61"/>
    <path class="cls-1" d="M52.57,32.64c9.15,0,17.44,4.76,23.54,9.61.73.59,1.73-.25,1.27-1.06L53.17.36c-.25-.48-.94-.48-1.19,0l-24.22,40.83c-.46.82.53,1.65,1.27,1.06,6.1-4.85,14.39-9.61,23.54-9.61Z"/>
    <path class="cls-1" d="M24.93,80.17c9.15,0,17.44,4.76,23.54,9.61.73.59,1.73-.25,1.27-1.06l-24.22-40.83c-.25-.48-.94-.48-1.19,0L.12,88.72c-.46.82.53,1.65,1.27,1.06,6.1-4.85,14.39-9.61,23.54-9.61"/>
    <path class="cls-1" d="M24.93,80.17c9.15,0,17.44,4.76,23.54,9.61.73.59,1.73-.25,1.27-1.06l-24.22-40.83c-.25-.48-.94-.48-1.19,0L.12,88.72c-.46.82.53,1.65,1.27,1.06,6.1-4.85,14.39-9.61,23.54-9.61Z"/>
    <path class="cls-1" d="M80.22,80.17c9.15,0,17.44,4.76,23.54,9.61.73.59,1.73-.25,1.27-1.06l-24.22-40.83c-.25-.48-.94-.48-1.19,0l-24.22,40.83c-.46.82.53,1.65,1.27,1.06,6.1-4.85,14.39-9.61,23.54-9.61"/>
    <path class="cls-1" d="M80.22,80.17c9.15,0,17.44,4.76,23.54,9.61.73.59,1.73-.25,1.27-1.06l-24.22-40.83c-.25-.48-.94-.48-1.19,0l-24.22,40.83c-.46.82.53,1.65,1.27,1.06,6.1-4.85,14.39-9.61,23.54-9.61Z"/>
  </g>
  <g>
    <path class="cls-1" d="M203.83,81.92h-19.76l-5.62-14.4h-30.48l-5.61,14.4h-19.76l29.64-73.02h21.74l29.85,73.02ZM152.34,54.28h21.64l-10.82-26.91-10.82,26.91Z"/>
    <path class="cls-1" d="M203.83,81.92h-19.76l-5.62-14.4h-30.48l-5.61,14.4h-19.76l29.64-73.02h21.74l29.85,73.02ZM152.34,54.28h21.64l-10.82-26.91-10.82,26.91Z"/>
    <polygon class="cls-1" points="308.97 81.92 289.83 81.92 269.44 29.76 285.88 29.76 299.4 66.17 312.82 29.76 329.36 29.76 308.97 81.92"/>
    <polygon class="cls-1" points="308.97 81.92 289.83 81.92 269.44 29.76 285.88 29.76 299.4 66.17 312.82 29.76 329.36 29.76 308.97 81.92"/>
    <path class="cls-1" d="M350.98,11.4c3.33,2.61,3.33,7.09,0,9.91-3.22,2.81-8.32,2.81-11.65,0-3.23-2.82-3.23-7.3,0-9.91,3.33-2.82,8.42-2.82,11.65,0M352.96,81.92h-15.5V29.76h15.5v52.16Z"/>
    <path class="cls-1" d="M350.98,11.4c3.33,2.61,3.33,7.09,0,9.91-3.22,2.81-8.32,2.81-11.65,0-3.23-2.82-3.23-7.3,0-9.91,3.33-2.82,8.42-2.82,11.65,0ZM352.96,81.92h-15.5V29.76h15.5v52.16Z"/>
    <path class="cls-1" d="M368.24,29.76v-13.98h15.5v13.98h13.73v11.79h-13.73v20.55c0,5.32,3.43,8.35,8.32,8.35,2.39,0,4.68-.73,7.07-2.09l1.98,10.64c-4.89,2.61-9.88,3.86-14.98,3.96-5.09.11-9.36-1.46-12.79-4.59-3.43-3.23-5.1-7.72-5.1-13.56V29.76Z"/>
    <path class="cls-1" d="M368.24,29.76v-13.98h15.5v13.98h13.73v11.79h-13.73v20.55c0,5.32,3.43,8.35,8.32,8.35,2.39,0,4.68-.73,7.07-2.09l1.98,10.64c-4.89,2.61-9.88,3.86-14.98,3.96-5.09.11-9.36-1.46-12.79-4.59-3.43-3.23-5.1-7.72-5.1-13.56V29.76Z"/>
    <path class="cls-1" d="M503.45,41.24c-7.39,0-13.94,3.23-19.55,9.7v30.99h-15.5V29.76h15.5v9.7c5.51-6.78,12.58-10.74,19.55-10.74v12.52Z"/>
    <path class="cls-1" d="M503.45,41.24c-7.39,0-13.94,3.23-19.55,9.7v30.99h-15.5V29.76h15.5v9.7c5.51-6.78,12.58-10.74,19.55-10.74v12.52Z"/>
    <path class="cls-1" d="M552.33,34.56l-5.1,9.39c-5.72-3.23-11.44-4.9-17.06-4.9-3.54,0-6.76,1.46-6.76,4.9,0,2.4,1.46,3.24,8.84,5.22,2.08.52,3.74,1.04,5.1,1.46,2.81.83,6.55,2.09,8.63,3.34,4.68,2.5,7.59,6.15,7.59,12.41,0,10.74-8.42,16.59-21.63,16.59-9.67,0-18.1-2.4-25.27-7.09l5.41-9.08c6.14,3.86,12.69,5.84,19.76,5.84,3.95,0,7.39-1.46,7.39-4.8,0-1.78-.52-2.92-1.56-3.55-1.04-.73-3.33-1.46-6.86-2.4l-1.98-.52c-5.51-1.56-8.43-2.4-12.17-4.17-4.89-2.5-7.7-6.05-7.7-12,0-10.85,8.74-16.48,21.22-16.48,8.42,0,15.81,1.98,22.16,5.84"/>
    <path class="cls-1" d="M552.33,34.56l-5.1,9.39c-5.72-3.23-11.44-4.9-17.06-4.9-3.54,0-6.76,1.46-6.76,4.9,0,2.4,1.46,3.24,8.84,5.22,2.08.52,3.74,1.04,5.1,1.46,2.81.83,6.55,2.09,8.63,3.34,4.68,2.5,7.59,6.15,7.59,12.41,0,10.74-8.42,16.59-21.63,16.59-9.67,0-18.1-2.4-25.27-7.09l5.41-9.08c6.14,3.86,12.69,5.84,19.76,5.84,3.95,0,7.39-1.46,7.39-4.8,0-1.78-.52-2.92-1.56-3.55-1.04-.73-3.33-1.46-6.86-2.4l-1.98-.52c-5.51-1.56-8.43-2.4-12.17-4.17-4.89-2.5-7.7-6.05-7.7-12,0-10.85,8.74-16.48,21.22-16.48,8.42,0,15.81,1.98,22.16,5.84Z"/>
    <path class="cls-1" d="M459.38,55.98v4.25h-39.75c.11,3.6,1.35,6.51,3.88,9.04,2.49,2.5,4.75,3.57,8.65,3.75,4.99.23,10.46-2.01,12.51-6.07,4.78-.08,9.43.08,14.21,0-1.25,2.64-5.23,10.42-14.31,14.3-5.26,2.25-10.11,2.22-12.08,2.22-7.7,0-14.34-2.64-19.82-8.04-5.48-5.39-8.22-11.84-8.22-19.46s2.64-14.06,8.01-19.45c5.37-5.4,11.91-8.04,19.5-8.04,16.77-.11,27.73,12.27,27.41,27.49M423.43,43.4c-2.43,2.54-3.69,5.6-3.69,9.09h24.99c0-7.3-4.85-12.9-12.44-12.9-3.48,0-6.43,1.27-8.86,3.81"/>
    <path class="cls-1" d="M459.38,55.98v4.25h-39.75c.11,3.6,1.35,6.51,3.88,9.04,2.49,2.5,4.75,3.57,8.65,3.75,4.99.23,10.46-2.01,12.51-6.07,4.78-.08,9.43.08,14.21,0-1.25,2.64-5.23,10.42-14.31,14.3-5.26,2.25-10.11,2.22-12.08,2.22-7.7,0-14.34-2.64-19.82-8.04-5.48-5.39-8.22-11.84-8.22-19.46s2.64-14.06,8.01-19.45c5.37-5.4,11.91-8.04,19.5-8.04,16.77-.11,27.73,12.27,27.41,27.49ZM423.43,43.4c-2.43,2.54-3.69,5.6-3.69,9.09h24.99c0-7.3-4.85-12.9-12.44-12.9-3.48,0-6.43,1.27-8.86,3.81Z"/>
    <path class="cls-1" d="M262.58,8.61v73.16h-15.53v-6.69c-4.69,5.12-10.42,7.74-17.2,7.74-14.38,0-23.55-12.13-23.55-27.18s9.17-27.18,23.55-27.18c6.67,0,12.4,2.61,17.2,7.74V8.61h15.53ZM221.62,55.65c0,3.87,1.35,7.11,4.06,9.93,2.71,2.72,5.94,4.08,9.8,4.08,4.69,0,9.07-2.51,11.57-6.38v-15.26c-2.5-3.87-6.88-6.38-11.57-6.38-7.5,0-13.86,6.38-13.86,14.01"/>
    <path class="cls-1" d="M262.58,8.61v73.16h-15.53v-6.69c-4.69,5.12-10.42,7.74-17.2,7.74-14.38,0-23.55-12.13-23.55-27.18s9.17-27.18,23.55-27.18c6.67,0,12.4,2.61,17.2,7.74V8.61h15.53ZM221.62,55.65c0,3.87,1.35,7.11,4.06,9.93,2.71,2.72,5.94,4.08,9.8,4.08,4.69,0,9.07-2.51,11.57-6.38v-15.26c-2.5-3.87-6.88-6.38-11.57-6.38-7.5,0-13.86,6.38-13.86,14.01Z"/>
  </g>
</svg>