<?xml version="1.0" encoding="UTF-8"?>
<svg id="Capa_1" xmlns="http://www.w3.org/2000/svg" viewBox="0 0 259.47 45.43">
  <defs>
    <style>
      .cls-1 {
        fill: #0078ff;
      }

      .cls-2 {
        fill: #ededed;
      }
    </style>
  </defs>
  <g>
    <path class="cls-1" d="M24.62,16.92c4.29,0,8.18,2.23,11.04,4.51.34.27.81-.12.59-.5L24.9,1.79c-.12-.23-.44-.23-.56,0l-11.35,19.14c-.22.38.25.77.59.5,2.86-2.27,6.75-4.51,11.04-4.51"/>
    <path class="cls-1" d="M24.62,16.92c4.29,0,8.18,2.23,11.04,4.51.34.27.81-.12.59-.5L24.9,1.79c-.12-.23-.44-.23-.56,0l-11.35,19.14c-.22.38.25.77.59.5,2.86-2.27,6.75-4.51,11.04-4.51Z"/>
    <path class="cls-1" d="M11.66,39.21c4.29,0,8.18,2.23,11.04,4.51.34.27.81-.12.59-.5l-11.35-19.14c-.12-.23-.44-.23-.56,0L.03,43.21c-.22.38.25.77.59.5,2.86-2.27,6.75-4.51,11.04-4.51"/>
    <path class="cls-1" d="M11.66,39.21c4.29,0,8.18,2.23,11.04,4.51.34.27.81-.12.59-.5l-11.35-19.14c-.12-.23-.44-.23-.56,0L.03,43.21c-.22.38.25.77.59.5,2.86-2.27,6.75-4.51,11.04-4.51Z"/>
    <path class="cls-1" d="M37.58,39.21c4.29,0,8.18,2.23,11.04,4.51.34.27.81-.12.59-.5l-11.35-19.14c-.12-.23-.44-.23-.56,0l-11.35,19.14c-.22.38.25.77.59.5,2.86-2.27,6.75-4.51,11.04-4.51"/>
    <path class="cls-1" d="M37.58,39.21c4.29,0,8.18,2.23,11.04,4.51.34.27.81-.12.59-.5l-11.35-19.14c-.12-.23-.44-.23-.56,0l-11.35,19.14c-.22.38.25.77.59.5,2.86-2.27,6.75-4.51,11.04-4.51Z"/>
  </g>
  <g>
    <path class="cls-2" d="M95.53,40.03h-9.26l-2.63-6.75h-14.29l-2.63,6.75h-9.27l13.9-34.24h10.19l13.99,34.24ZM71.39,27.07h10.14l-5.07-12.62-5.07,12.62Z"/>
    <path class="cls-2" d="M95.53,40.03h-9.26l-2.63-6.75h-14.29l-2.63,6.75h-9.27l13.9-34.24h10.19l13.99,34.24ZM71.39,27.07h10.14l-5.07-12.62-5.07,12.62Z"/>
    <polygon class="cls-2" points="144.82 40.03 135.85 40.03 126.29 15.57 134 15.57 140.34 32.64 146.63 15.57 154.38 15.57 144.82 40.03"/>
    <polygon class="cls-2" points="144.82 40.03 135.85 40.03 126.29 15.57 134 15.57 140.34 32.64 146.63 15.57 154.38 15.57 144.82 40.03"/>
    <path class="cls-2" d="M164.52,6.96c1.56,1.22,1.56,3.33,0,4.65-1.51,1.32-3.9,1.32-5.46,0-1.51-1.32-1.51-3.42,0-4.65,1.56-1.32,3.95-1.32,5.46,0M165.44,40.03h-7.26V15.57h7.26v24.45Z"/>
    <path class="cls-2" d="M164.52,6.96c1.56,1.22,1.56,3.33,0,4.65-1.51,1.32-3.9,1.32-5.46,0-1.51-1.32-1.51-3.42,0-4.65,1.56-1.32,3.95-1.32,5.46,0ZM165.44,40.03h-7.26V15.57h7.26v24.45Z"/>
    <path class="cls-2" d="M172.61,15.57v-6.55h7.26v6.55h6.44v5.53h-6.44v9.63c0,2.49,1.61,3.91,3.9,3.91,1.12,0,2.19-.34,3.32-.98l.93,4.99c-2.29,1.22-4.63,1.81-7.02,1.86-2.39.05-4.39-.68-6-2.15-1.61-1.52-2.39-3.62-2.39-6.36V15.57Z"/>
    <path class="cls-2" d="M172.61,15.57v-6.55h7.26v6.55h6.44v5.53h-6.44v9.63c0,2.49,1.61,3.91,3.9,3.91,1.12,0,2.19-.34,3.32-.98l.93,4.99c-2.29,1.22-4.63,1.81-7.02,1.86-2.39.05-4.39-.68-6-2.15-1.61-1.52-2.39-3.62-2.39-6.36V15.57Z"/>
    <path class="cls-2" d="M236,20.95c-3.46,0-6.53,1.52-9.17,4.55v14.53h-7.27V15.57h7.27v4.55c2.58-3.18,5.9-5.04,9.17-5.04v5.87Z"/>
    <path class="cls-2" d="M236,20.95c-3.46,0-6.53,1.52-9.17,4.55v14.53h-7.27V15.57h7.27v4.55c2.58-3.18,5.9-5.04,9.17-5.04v5.87Z"/>
    <path class="cls-2" d="M258.91,17.82l-2.39,4.4c-2.68-1.52-5.36-2.3-8-2.3-1.66,0-3.17.69-3.17,2.3,0,1.13.68,1.52,4.15,2.45.97.24,1.75.49,2.39.68,1.32.39,3.07.98,4.05,1.56,2.19,1.17,3.56,2.89,3.56,5.82,0,5.04-3.95,7.78-10.14,7.78-4.53,0-8.49-1.13-11.85-3.33l2.54-4.26c2.88,1.81,5.95,2.74,9.27,2.74,1.85,0,3.46-.69,3.46-2.25,0-.83-.24-1.37-.73-1.66-.49-.34-1.56-.68-3.22-1.12l-.93-.25c-2.58-.73-3.95-1.12-5.71-1.96-2.29-1.17-3.61-2.84-3.61-5.62,0-5.09,4.1-7.73,9.95-7.73,3.95,0,7.41.93,10.39,2.74"/>
    <path class="cls-2" d="M258.91,17.82l-2.39,4.4c-2.68-1.52-5.36-2.3-8-2.3-1.66,0-3.17.69-3.17,2.3,0,1.13.68,1.52,4.15,2.45.97.24,1.75.49,2.39.68,1.32.39,3.07.98,4.05,1.56,2.19,1.17,3.56,2.89,3.56,5.82,0,5.04-3.95,7.78-10.14,7.78-4.53,0-8.49-1.13-11.85-3.33l2.54-4.26c2.88,1.81,5.95,2.74,9.27,2.74,1.85,0,3.46-.69,3.46-2.25,0-.83-.24-1.37-.73-1.66-.49-.34-1.56-.68-3.22-1.12l-.93-.25c-2.58-.73-3.95-1.12-5.71-1.96-2.29-1.17-3.61-2.84-3.61-5.62,0-5.09,4.1-7.73,9.95-7.73,3.95,0,7.41.93,10.39,2.74Z"/>
    <path class="cls-2" d="M215.34,27.87v1.99h-18.63c.05,1.69.63,3.05,1.82,4.24,1.17,1.17,2.23,1.67,4.05,1.76,2.34.11,4.91-.94,5.87-2.85,2.24-.04,4.42.04,6.66,0-.58,1.24-2.45,4.88-6.71,6.7-2.46,1.05-4.74,1.04-5.66,1.04-3.61,0-6.72-1.24-9.29-3.77-2.57-2.53-3.86-5.55-3.86-9.12s1.24-6.59,3.76-9.12c2.52-2.53,5.58-3.77,9.14-3.77,7.86-.05,13,5.75,12.85,12.89M198.48,21.97c-1.14,1.19-1.73,2.63-1.73,4.26h11.71c0-3.42-2.27-6.05-5.83-6.05-1.63,0-3.02.59-4.15,1.78"/>
    <path class="cls-2" d="M215.34,27.87v1.99h-18.63c.05,1.69.63,3.05,1.82,4.24,1.17,1.17,2.23,1.67,4.05,1.76,2.34.11,4.91-.94,5.87-2.85,2.24-.04,4.42.04,6.66,0-.58,1.24-2.45,4.88-6.71,6.7-2.46,1.05-4.74,1.04-5.66,1.04-3.61,0-6.72-1.24-9.29-3.77-2.57-2.53-3.86-5.55-3.86-9.12s1.24-6.59,3.76-9.12c2.52-2.53,5.58-3.77,9.14-3.77,7.86-.05,13,5.75,12.85,12.89ZM198.48,21.97c-1.14,1.19-1.73,2.63-1.73,4.26h11.71c0-3.42-2.27-6.05-5.83-6.05-1.63,0-3.02.59-4.15,1.78Z"/>
    <path class="cls-2" d="M123.07,5.66v34.3h-7.28v-3.14c-2.2,2.4-4.89,3.63-8.06,3.63-6.74,0-11.04-5.69-11.04-12.74s4.3-12.74,11.04-12.74c3.13,0,5.81,1.22,8.06,3.63V5.66h7.28ZM103.87,27.71c0,1.81.63,3.33,1.91,4.66,1.27,1.27,2.79,1.91,4.59,1.91,2.2,0,4.25-1.18,5.42-2.99v-7.15c-1.17-1.81-3.22-2.99-5.42-2.99-3.52,0-6.5,2.99-6.5,6.57"/>
    <path class="cls-2" d="M123.07,5.66v34.3h-7.28v-3.14c-2.2,2.4-4.89,3.63-8.06,3.63-6.74,0-11.04-5.69-11.04-12.74s4.3-12.74,11.04-12.74c3.13,0,5.81,1.22,8.06,3.63V5.66h7.28ZM103.87,27.71c0,1.81.63,3.33,1.91,4.66,1.27,1.27,2.79,1.91,4.59,1.91,2.2,0,4.25-1.18,5.42-2.99v-7.15c-1.17-1.81-3.22-2.99-5.42-2.99-3.52,0-6.5,2.99-6.5,6.57Z"/>
  </g>
</svg>